<svg xmlns="http://www.w3.org/2000/svg" xmlns:xlink="http://www.w3.org/1999/xlink" width="640" height="590" preserveAspectRatio="xMidYMid meet" version="1.1" viewBox="0 0 640 590"><defs><path id="c8zIxtSyL" d="M462.21 155.6C462.21 233.87 398.67 297.41 320.41 297.41C242.14 297.41 178.6 233.87 178.6 155.6C178.6 77.34 242.14 13.8 320.41 13.8C398.67 13.8 462.21 77.34 462.21 155.6Z"/><path id="a2c2PXnTyU" d="M623.75 431.94C623.75 510.2 560.2 573.74 481.94 573.74C403.68 573.74 340.13 510.2 340.13 431.94C340.13 353.68 403.68 290.13 481.94 290.13C560.2 290.13 623.75 353.68 623.75 431.94Z"/><path id="atFZ3zVOz" d="M299.87 431.94C299.87 510.2 236.32 573.74 158.06 573.74C79.8 573.74 16.25 510.2 16.25 431.94C16.25 353.68 79.8 290.13 158.06 290.13C236.32 290.13 299.87 353.68 299.87 431.94Z"/><path id="c3gc40ojED" d="M278.96 155.6C278.96 173.11 264.74 187.33 247.23 187.33C229.72 187.33 215.51 173.11 215.51 155.6C215.51 138.09 229.72 123.88 247.23 123.88C264.74 123.88 278.96 138.09 278.96 155.6Z"/></defs><g><g><g><use fill="#4b8bbe" fill-opacity="1" opacity="1" xlink:href="#c8zIxtSyL"/><g><use fill-opacity="0" stroke="#306998" stroke-opacity="1" stroke-width="20" opacity="1" xlink:href="#c8zIxtSyL"/></g></g><g><use fill="#ffe873" fill-opacity="1" opacity="1" xlink:href="#a2c2PXnTyU"/><g><use fill-opacity="0" stroke="#ffd43b" stroke-opacity="1" stroke-width="20" opacity="1" xlink:href="#a2c2PXnTyU"/></g></g><g><use fill="#4b8bbe" fill-opacity="1" opacity="1" xlink:href="#atFZ3zVOz"/><g><use fill-opacity="0" stroke="#306998" stroke-opacity="1" stroke-width="20" opacity="1" xlink:href="#atFZ3zVOz"/></g></g><g><use fill="#fff" fill-opacity="1" opacity="1" xlink:href="#c3gc40ojED"/></g></g></g></svg>